<svg width="45" height="44" viewBox="0 0 45 44" fill="none" xmlns="http://www.w3.org/2000/svg">
<path d="M33.1367 9.41016H33.1416C34.5287 9.45121 35.4274 9.91686 35.9951 10.7109C36.5901 11.5432 36.9133 12.8612 36.8418 14.7852C36.7733 16.1352 36.2676 17.8016 35.2607 19.8066C34.2571 21.8052 32.7768 24.0993 30.8076 26.6963L30.8066 26.6973C28.7649 29.3977 26.9076 31.3914 25.2314 32.7031C23.5481 34.0205 22.117 34.5966 20.9141 34.5967C20.3029 34.5967 19.6815 34.3171 19.04 33.5986C18.3903 32.8709 17.7589 31.7311 17.1709 30.124L14.7246 21.0381L14.7236 21.0352C14.2629 19.3496 13.7725 18.0276 13.2383 17.1113C12.7649 16.2994 12.1255 15.5862 11.2646 15.5L11.0889 15.4912C10.8427 15.4913 10.6112 15.5953 10.4844 15.6553C10.3204 15.7328 10.1304 15.8396 9.92188 15.9668C9.63022 16.1446 9.27432 16.3811 8.85352 16.6689L8.28516 15.9307L12.1982 12.3896C13.1803 11.5129 14.0156 10.8683 14.71 10.4385C15.4202 9.99886 15.9141 9.829 16.2295 9.80957L16.25 9.80859L16.2705 9.80566C17.2356 9.69249 17.9413 9.96112 18.4902 10.5742C19.0777 11.2304 19.5452 12.3498 19.8086 14.0449L19.8096 14.0479C20.4122 17.8142 20.8105 20.2185 21.0303 21.1787V21.1797C21.3823 22.7662 21.7531 24.0109 22.1611 24.874C22.3644 25.3041 22.5968 25.6835 22.875 25.9648C23.1589 26.252 23.5391 26.4824 24.0068 26.4824C24.3619 26.4824 24.6831 26.3432 24.9492 26.1738C25.2205 26.0011 25.4893 25.7621 25.7549 25.4795C26.2803 24.9203 26.8632 24.1122 27.5029 23.0781C28.5514 21.6174 29.2845 19.949 29.6533 18.1816L29.6611 18.1436L29.665 18.1045C29.7647 17.1258 29.6436 16.2277 29.1357 15.5625C28.6062 14.869 27.7901 14.5977 26.8877 14.5977C26.5394 14.5977 26.1894 14.6342 25.8408 14.7021C26.5085 13.0242 27.3623 11.777 28.376 10.9199C29.6365 9.85417 31.2059 9.33906 33.1367 9.41016Z" stroke="#231213" stroke-width="1.5"/>
</svg>
