<svg width="45" height="44" viewBox="0 0 45 44" fill="none" xmlns="http://www.w3.org/2000/svg">
<path d="M30.3101 6.25H14.5601C10.2108 6.25 6.68506 9.77576 6.68506 14.125V29.875C6.68506 34.2242 10.2108 37.75 14.5601 37.75H30.3101C34.6593 37.75 38.1851 34.2242 38.1851 29.875V14.125C38.1851 9.77576 34.6593 6.25 30.3101 6.25Z" stroke="#231213" stroke-width="1.5" stroke-linecap="round" stroke-linejoin="round"/>
<path d="M30.6193 20.8705C30.8738 22.4726 30.5806 24.1088 29.7814 25.5464C28.9822 26.984 27.7176 28.1497 26.1676 28.8779C24.6176 29.606 22.8611 29.8595 21.1478 29.6022C19.4346 29.3449 17.8519 28.5899 16.6249 27.4447C15.3978 26.2995 14.589 24.8223 14.3133 23.2233C14.0376 21.6243 14.3092 19.9848 15.0893 18.5381C15.8695 17.0915 17.1185 15.9112 18.6588 15.1653C20.1991 14.4194 21.9521 14.1457 23.6686 14.3833C25.4195 14.6256 27.0405 15.3871 28.2921 16.5553C29.5437 17.7234 30.3596 19.2364 30.6193 20.8705Z" stroke="#231213" stroke-width="1.5" stroke-linecap="round" stroke-linejoin="round"/>
</svg>
