<svg width="45" height="44" viewBox="0 0 45 44" fill="none" xmlns="http://www.w3.org/2000/svg">
<path d="M38.1851 9.24405C36.8139 10.2055 35.2958 10.9409 33.6891 11.4218C32.8268 10.4361 31.6808 9.73752 30.406 9.42044C29.1313 9.10336 27.7893 9.18312 26.5617 9.64893C25.334 10.1147 24.2799 10.9441 23.5418 12.0249C22.8038 13.1057 22.4174 14.3857 22.4351 15.6919V17.1153C19.9188 17.1802 17.4255 16.6254 15.1772 15.5004C12.9289 14.3754 10.9953 12.7151 9.54869 10.6674C9.54869 10.6674 3.82142 23.4778 16.7078 29.1713C13.759 31.1611 10.2462 32.1588 6.68506 32.018C19.5714 39.1349 35.3214 32.018 35.3214 15.6492C35.3201 15.2528 35.2818 14.8573 35.2069 14.4678C36.6682 13.0352 37.6994 11.2264 38.1851 9.24405V9.24405Z" stroke="#231213" stroke-width="1.5" stroke-linecap="round" stroke-linejoin="round"/>
</svg>
