<svg width="45" height="44" viewBox="0 0 45 44" fill="none" xmlns="http://www.w3.org/2000/svg">
<path d="M37.8059 14.2563C37.6327 13.5642 37.2799 12.93 36.7831 12.4179C36.2864 11.9058 35.6633 11.5338 34.9767 11.3396C32.4684 10.7271 22.4351 10.7271 22.4351 10.7271C22.4351 10.7271 12.4017 10.7271 9.89341 11.3979C9.2069 11.5922 8.5838 11.9641 8.08704 12.4762C7.59029 12.9884 7.23748 13.6225 7.06425 14.3146C6.60518 16.8602 6.38063 19.4426 6.39341 22.0292C6.37705 24.6353 6.60161 27.2373 7.06425 29.8021C7.25523 30.4727 7.61594 31.0827 8.11154 31.5732C8.60713 32.0637 9.22086 32.4181 9.89341 32.6021C12.4017 33.2729 22.4351 33.2729 22.4351 33.2729C22.4351 33.2729 32.4684 33.2729 34.9767 32.6021C35.6633 32.4079 36.2864 32.0359 36.7831 31.5238C37.2799 31.0117 37.6327 30.3776 37.8059 29.6854C38.2614 27.159 38.486 24.5964 38.4767 22.0292C38.4931 19.4231 38.2685 16.821 37.8059 14.2563Z" stroke="#231213" stroke-width="1.5" stroke-linecap="round" stroke-linejoin="round"/>
<path d="M18.3101 27.5366L28.8517 21.5416L18.3101 15.5466V27.5366Z" stroke="#231213" stroke-width="1.5" stroke-linecap="round" stroke-linejoin="round"/>
</svg>
